<mxfile host="app.diagrams.net" modified="2022-11-16T17:01:11.194Z" agent="5.0 (Windows)" etag="CvEGgt1eRvk86JdxyY1e" version="20.5.3" type="github">
  <diagram id="wFE0QG_FPsp0jaGvCLVb" name="Page-1">
    <mxGraphModel dx="1803" dy="1000" grid="1" gridSize="10" guides="1" tooltips="1" connect="1" arrows="1" fold="1" page="1" pageScale="1" pageWidth="850" pageHeight="1100" math="0" shadow="0">
      <root>
        <mxCell id="0" />
        <mxCell id="1" parent="0" />
        <mxCell id="jnHG9VufrkIBZ4fwylr7-1" value="" style="endArrow=classic;html=1;rounded=0;strokeWidth=5;" parent="1" edge="1">
          <mxGeometry width="50" height="50" relative="1" as="geometry">
            <mxPoint x="94" y="662" as="sourcePoint" />
            <mxPoint x="1160" y="662" as="targetPoint" />
          </mxGeometry>
        </mxCell>
        <mxCell id="jnHG9VufrkIBZ4fwylr7-2" value="&lt;div style=&quot;font-size: 23px;&quot;&gt;&lt;font style=&quot;font-size: 23px;&quot;&gt;Organisme&lt;/font&gt;&lt;font style=&quot;font-size: 23px;&quot;&gt; &lt;font style=&quot;font-size: 17px;&quot;&gt;&lt;br&gt;&lt;/font&gt;&lt;/font&gt;&lt;/div&gt;&lt;div style=&quot;font-size: 17px;&quot;&gt;&lt;font style=&quot;font-size: 17px;&quot;&gt;(entreprise privée, établissement publique&lt;/font&gt;&lt;/div&gt;&lt;div style=&quot;font-size: 17px;&quot;&gt;&lt;font style=&quot;font-size: 17px;&quot;&gt;collectivité territoriale)&lt;/font&gt;&lt;/div&gt;" style="text;html=1;strokeColor=none;fillColor=none;align=center;verticalAlign=middle;whiteSpace=wrap;rounded=0;" parent="1" vertex="1">
          <mxGeometry x="120" y="672" width="326" height="60" as="geometry" />
        </mxCell>
        <mxCell id="jnHG9VufrkIBZ4fwylr7-3" value="&lt;font style=&quot;font-size: 23px;&quot;&gt;Etat&lt;/font&gt;" style="text;whiteSpace=wrap;html=1;fontSize=20;" parent="1" vertex="1">
          <mxGeometry x="880" y="672" width="40" height="40" as="geometry" />
        </mxCell>
        <mxCell id="jnHG9VufrkIBZ4fwylr7-4" value="&lt;font style=&quot;font-size: 23px;&quot;&gt;Filière&lt;/font&gt;" style="text;html=1;align=center;verticalAlign=middle;resizable=0;points=[];autosize=1;strokeColor=none;fillColor=none;fontSize=20;" parent="1" vertex="1">
          <mxGeometry x="539" y="672" width="90" height="40" as="geometry" />
        </mxCell>
        <mxCell id="jnHG9VufrkIBZ4fwylr7-5" value="" style="endArrow=none;dashed=1;html=1;dashPattern=1 3;strokeWidth=2;rounded=0;fontSize=20;textOpacity=50;opacity=30;" parent="1" edge="1">
          <mxGeometry width="50" height="50" relative="1" as="geometry">
            <mxPoint x="94" y="280" as="sourcePoint" />
            <mxPoint x="1160" y="280" as="targetPoint" />
          </mxGeometry>
        </mxCell>
        <mxCell id="jnHG9VufrkIBZ4fwylr7-6" value="" style="endArrow=none;dashed=1;html=1;dashPattern=1 3;strokeWidth=2;rounded=0;fontSize=20;opacity=30;textOpacity=50;" parent="1" edge="1">
          <mxGeometry width="50" height="50" relative="1" as="geometry">
            <mxPoint x="94" y="463" as="sourcePoint" />
            <mxPoint x="1160" y="470" as="targetPoint" />
          </mxGeometry>
        </mxCell>
        <mxCell id="jnHG9VufrkIBZ4fwylr7-7" value="&lt;b&gt;Energie et Procédés&lt;/b&gt;" style="text;html=1;strokeColor=none;fillColor=none;align=center;verticalAlign=middle;whiteSpace=wrap;rounded=0;fontSize=20;" parent="1" vertex="1">
          <mxGeometry x="334" y="40" width="500" height="30" as="geometry" />
        </mxCell>
        <mxCell id="jnHG9VufrkIBZ4fwylr7-8" value="&lt;b&gt;Transports&lt;/b&gt;" style="text;html=1;strokeColor=none;fillColor=none;align=center;verticalAlign=middle;whiteSpace=wrap;rounded=0;fontSize=20;" parent="1" vertex="1">
          <mxGeometry x="334" y="285" width="500" height="30" as="geometry" />
        </mxCell>
        <mxCell id="jnHG9VufrkIBZ4fwylr7-9" value="&lt;b&gt;Autres domaines&lt;/b&gt;" style="text;html=1;strokeColor=none;fillColor=none;align=center;verticalAlign=middle;whiteSpace=wrap;rounded=0;fontSize=20;" parent="1" vertex="1">
          <mxGeometry x="334" y="470" width="500" height="30" as="geometry" />
        </mxCell>
        <mxCell id="jnHG9VufrkIBZ4fwylr7-10" value="&lt;p style=&quot;line-height: 100%; font-size: 12px;&quot;&gt;&lt;/p&gt;&lt;div style=&quot;font-size: 18px;&quot;&gt;&lt;font style=&quot;font-size: 18px;&quot;&gt;&lt;b style=&quot;&quot;&gt;Plans d&#39;actions combinant décarbonation, économies d&#39;énergie et verdissement de flottes de véhicules&lt;br&gt;&lt;/b&gt;&lt;/font&gt;&lt;/div&gt;&lt;div style=&quot;font-size: 18px;&quot;&gt;&lt;font style=&quot;font-size: 18px;&quot;&gt;&lt;b style=&quot;&quot;&gt;-&lt;/b&gt;&lt;/font&gt;&lt;/div&gt;&lt;div style=&quot;font-size: 18px;&quot;&gt;&lt;font style=&quot;font-size: 18px;&quot;&gt;&lt;b style=&quot;&quot;&gt;Application à une entreprise à déterminer&lt;/b&gt;&lt;/font&gt;&lt;/div&gt;&lt;div style=&quot;font-size: 18px;&quot;&gt;&lt;font style=&quot;font-size: 18px;&quot;&gt;&lt;b style=&quot;&quot;&gt;&lt;br&gt;&lt;/b&gt;&lt;/font&gt;&lt;/div&gt;&lt;div style=&quot;font-size: 14px;&quot;&gt;&lt;font style=&quot;font-size: 14px;&quot;&gt;&lt;span style=&quot;&quot;&gt;(autofinancement ou dans le cadre d&#39;une étude)&lt;br&gt;&lt;/span&gt;&lt;/font&gt;&lt;/div&gt;&lt;div style=&quot;font-size: 14px; line-height: 80%;&quot;&gt;&lt;font style=&quot;font-size: 14px;&quot;&gt;&lt;span style=&quot;&quot;&gt;&lt;b&gt;&lt;font style=&quot;font-size: 14px;&quot;&gt;&amp;nbsp;&lt;/font&gt;&lt;br&gt;&lt;/b&gt;&lt;/span&gt;&lt;/font&gt;&lt;/div&gt;&lt;p style=&quot;font-size: 12px;&quot;&gt;&lt;/p&gt;" style="rounded=1;whiteSpace=wrap;html=1;fontSize=12;labelBackgroundColor=none;opacity=20;fillColor=#0050ef;strokeColor=#001DBC;fontColor=#303030;" parent="1" vertex="1">
          <mxGeometry x="150" y="80" width="255.5" height="350" as="geometry" />
        </mxCell>
        <mxCell id="jnHG9VufrkIBZ4fwylr7-13" value="&lt;p style=&quot;line-height: 170%; font-size: 18px;&quot; align=&quot;center&quot;&gt;&lt;/p&gt;&lt;div style=&quot;font-size: 18px; line-height: 100%;&quot; align=&quot;center&quot;&gt;&lt;font style=&quot;font-size: 18px;&quot;&gt;&lt;font style=&quot;font-size: 18px;&quot;&gt;&lt;b style=&quot;&quot;&gt;Plans de transition &lt;/b&gt;&lt;/font&gt;&lt;b&gt;du secteur du ciment&lt;/b&gt;&lt;br&gt;&lt;/font&gt;&lt;/div&gt;&lt;div style=&quot;font-size: 13px;&quot; align=&quot;center&quot;&gt;&lt;font style=&quot;font-size: 13px;&quot;&gt;&lt;br&gt;&lt;/font&gt;&lt;/div&gt;&lt;div style=&quot;font-size: 13px;&quot; align=&quot;center&quot;&gt;&lt;font style=&quot;font-size: 14px;&quot;&gt;(autofinancement)&lt;/font&gt;&lt;/div&gt;&lt;div style=&quot;font-size: 13px;&quot; align=&quot;center&quot;&gt;&lt;font style=&quot;font-size: 13px;&quot;&gt;&lt;br&gt;&lt;/font&gt;&lt;/div&gt;" style="rounded=1;whiteSpace=wrap;html=1;fontSize=12;labelBackgroundColor=none;opacity=20;fillColor=#0050ef;strokeColor=#001DBC;fontColor=#303030;align=center;arcSize=12;horizontal=1;" parent="1" vertex="1">
          <mxGeometry x="440" y="80" width="220" height="80" as="geometry" />
        </mxCell>
        <mxCell id="jnHG9VufrkIBZ4fwylr7-14" value="&lt;p style=&quot;line-height: 0.4; font-size: 12px;&quot;&gt;&lt;/p&gt;&lt;div style=&quot;font-size: 18px;&quot;&gt;&lt;font style=&quot;font-size: 18px;&quot;&gt;&lt;b style=&quot;&quot;&gt;Études de cas sur les actions énergie au Tchad ou au Nigeria&lt;br&gt;&lt;/b&gt;&lt;/font&gt;&lt;/div&gt;&lt;div style=&quot;font-size: 18px;&quot;&gt;&lt;font style=&quot;font-size: 18px;&quot;&gt;&lt;b style=&quot;&quot;&gt;&lt;br&gt;&lt;/b&gt;&lt;/font&gt;&lt;/div&gt;&lt;font style=&quot;font-size: 14px;&quot;&gt;(FEXTE ou autofinancement)&lt;/font&gt;&lt;br&gt;&lt;div&gt;&lt;span&gt;&lt;br&gt;&lt;/span&gt;&lt;/div&gt;" style="rounded=1;whiteSpace=wrap;html=1;fontSize=12;labelBackgroundColor=none;opacity=20;fillColor=#0050ef;strokeColor=#001DBC;fontColor=#303030;" parent="1" vertex="1">
          <mxGeometry x="676" y="100" width="226" height="140" as="geometry" />
        </mxCell>
        <mxCell id="jnHG9VufrkIBZ4fwylr7-15" value="&lt;p style=&quot;line-height: 0.4; font-size: 12px;&quot;&gt;&lt;/p&gt;&lt;div style=&quot;font-size: 18px;&quot;&gt;&lt;font style=&quot;font-size: 18px;&quot;&gt;&lt;b style=&quot;&quot;&gt;Études de cas sur les coûts d&#39;abattement dans les transports par France-Stratégie&lt;br&gt;&lt;/b&gt;&lt;/font&gt;&lt;/div&gt;&lt;p style=&quot;font-size: 14px;&quot;&gt;&lt;span&gt;(autofinancement)&lt;br&gt;&lt;/span&gt;&lt;/p&gt;" style="rounded=1;whiteSpace=wrap;html=1;fontSize=12;labelBackgroundColor=none;opacity=20;fillColor=#0050ef;strokeColor=#001DBC;fontColor=#303030;" parent="1" vertex="1">
          <mxGeometry x="440" y="315" width="450" height="125" as="geometry" />
        </mxCell>
        <mxCell id="9_UomztmyeiiNCHOsHB9-1" value="&lt;p style=&quot;line-height: 0%;&quot;&gt;&lt;/p&gt;&lt;div&gt;&lt;font style=&quot;font-size: 28px;&quot;&gt;&lt;b&gt;Applications &lt;br&gt;&lt;/b&gt;&lt;/font&gt;&lt;/div&gt;&lt;div&gt;&lt;font style=&quot;font-size: 28px;&quot;&gt;&lt;font style=&quot;font-size: 18px;&quot;&gt;(triées par échelle de travail)&lt;/font&gt;&lt;b&gt;&lt;br&gt;&lt;/b&gt;&lt;/font&gt;&lt;/div&gt;&lt;p&gt;&lt;/p&gt;" style="text;html=1;strokeColor=none;fillColor=none;align=center;verticalAlign=middle;whiteSpace=wrap;rounded=0;fontSize=20;" parent="1" vertex="1">
          <mxGeometry x="397" y="740" width="374" height="60" as="geometry" />
        </mxCell>
        <mxCell id="9_UomztmyeiiNCHOsHB9-6" value="&lt;font style=&quot;font-size: 28px;&quot;&gt;&lt;b&gt;Secteur&lt;/b&gt;&lt;/font&gt;" style="text;whiteSpace=wrap;html=1;fontSize=12;fontFamily=Helvetica;rotation=-90;" parent="1" vertex="1">
          <mxGeometry y="330" width="120" height="40" as="geometry" />
        </mxCell>
        <mxCell id="v3dB4_XIEoKgeHJ3p4Ie-5" value="&lt;p style=&quot;line-height: 170%; font-size: 18px;&quot; align=&quot;center&quot;&gt;&lt;/p&gt;&lt;div style=&quot;font-size: 18px; line-height: 100%;&quot; align=&quot;center&quot;&gt;&lt;font style=&quot;font-size: 18px;&quot;&gt;&lt;font style=&quot;font-size: 18px;&quot;&gt;&lt;b style=&quot;&quot;&gt;Plans de transition de la filière &lt;/b&gt;&lt;/font&gt;&lt;b&gt;du papier-carton&lt;/b&gt;&lt;br&gt;&lt;/font&gt;&lt;/div&gt;&lt;div style=&quot;font-size: 13px;&quot; align=&quot;center&quot;&gt;&lt;font style=&quot;font-size: 13px;&quot;&gt;&lt;br&gt;&lt;/font&gt;&lt;/div&gt;&lt;div style=&quot;font-size: 13px;&quot; align=&quot;center&quot;&gt;&lt;font style=&quot;font-size: 14px;&quot;&gt;(autofinancement partiel dans le cadre d&#39;une étude)&lt;/font&gt;&lt;/div&gt;&lt;div style=&quot;font-size: 13px;&quot; align=&quot;center&quot;&gt;&lt;font style=&quot;font-size: 13px;&quot;&gt;&lt;br&gt;&lt;/font&gt;&lt;/div&gt;" style="rounded=1;whiteSpace=wrap;html=1;fontSize=12;labelBackgroundColor=none;opacity=20;fillColor=#0050ef;strokeColor=#001DBC;fontColor=#303030;align=center;arcSize=12;horizontal=1;" vertex="1" parent="1">
          <mxGeometry x="440" y="170" width="220" height="90" as="geometry" />
        </mxCell>
        <mxCell id="v3dB4_XIEoKgeHJ3p4Ie-6" value="&lt;p style=&quot;line-height: 0.4; font-size: 12px;&quot;&gt;&lt;/p&gt;&lt;div style=&quot;font-size: 18px;&quot;&gt;&lt;font style=&quot;font-size: 18px;&quot;&gt;&lt;b style=&quot;&quot;&gt;Étude de cas sur la stratégie&amp;nbsp; bas-carbone Colombienne&lt;br&gt;&lt;/b&gt;&lt;/font&gt;&lt;/div&gt;&lt;div style=&quot;font-size: 18px;&quot;&gt;&lt;font style=&quot;font-size: 18px;&quot;&gt;&lt;b style=&quot;&quot;&gt;-&lt;/b&gt;&lt;/font&gt;&lt;/div&gt;&lt;div style=&quot;font-size: 18px;&quot;&gt;&lt;font style=&quot;font-size: 18px;&quot;&gt;&lt;b style=&quot;&quot;&gt;Élaboration d&#39;un prototype commercial&lt;br&gt;&lt;/b&gt;&lt;/font&gt;&lt;/div&gt;&lt;div&gt;&lt;span&gt;&lt;b&gt;&lt;br&gt;&lt;/b&gt;&lt;/span&gt;&lt;/div&gt;&lt;font style=&quot;font-size: 14px;&quot;&gt;(FASEP)&lt;/font&gt;&lt;div&gt;&lt;span&gt;&lt;br&gt;&lt;/span&gt;&lt;/div&gt;" style="rounded=1;whiteSpace=wrap;html=1;fontSize=12;labelBackgroundColor=none;opacity=20;fillColor=#0050ef;strokeColor=#001DBC;fontColor=#303030;" vertex="1" parent="1">
          <mxGeometry x="920" y="80" width="226" height="560" as="geometry" />
        </mxCell>
        <mxCell id="v3dB4_XIEoKgeHJ3p4Ie-7" value="&lt;p style=&quot;line-height: 100%; font-size: 12px;&quot;&gt;&lt;/p&gt;&lt;div style=&quot;font-size: 18px;&quot;&gt;&lt;font style=&quot;font-size: 18px;&quot;&gt;&lt;b style=&quot;&quot;&gt;Stratégie de transition bas carbone de Monaco&lt;br&gt;&lt;/b&gt;&lt;/font&gt;&lt;/div&gt;&lt;br&gt;&lt;div&gt;&lt;font size=&quot;1&quot;&gt;&lt;span style=&quot;font-size: 14px;&quot;&gt;(demande budgétaire)&lt;/span&gt;&lt;/font&gt;&lt;/div&gt;&lt;p style=&quot;font-size: 12px;&quot;&gt;&lt;/p&gt;" style="rounded=1;whiteSpace=wrap;html=1;fontSize=12;labelBackgroundColor=none;opacity=20;fillColor=#0050ef;strokeColor=#001DBC;fontColor=#303030;" vertex="1" parent="1">
          <mxGeometry x="160" y="462" width="245.5" height="128" as="geometry" />
        </mxCell>
      </root>
    </mxGraphModel>
  </diagram>
</mxfile>
